<svg xmlns="http://www.w3.org/2000/svg" width="59" height="59" viewBox="0 0 59 59">
  <g id="Group_637" data-name="Group 637" transform="translate(-2625.477 -405.331)">
    <rect id="Rectangle_260" data-name="Rectangle 260" width="59" height="59" transform="translate(2625.477 405.331)" fill="#ebebeb"/>
    <path id="Icon_awesome-twitter" data-name="Icon awesome-twitter" d="M27.131,9.5c.019.269.019.537.019.806,0,8.193-6.236,17.633-17.633,17.633A17.514,17.514,0,0,1,0,25.158a12.82,12.82,0,0,0,1.5.077,12.412,12.412,0,0,0,7.694-2.648,6.208,6.208,0,0,1-5.795-4.3,7.816,7.816,0,0,0,1.17.1A6.555,6.555,0,0,0,6.2,18.174a6.2,6.2,0,0,1-4.97-6.082v-.077a6.241,6.241,0,0,0,2.8.787A6.207,6.207,0,0,1,2.111,4.513,17.616,17.616,0,0,0,14.889,11a7,7,0,0,1-.153-1.42,6.2,6.2,0,0,1,10.726-4.24,12.2,12.2,0,0,0,3.933-1.5A6.181,6.181,0,0,1,26.67,7.257,12.424,12.424,0,0,0,30.239,6.3a13.322,13.322,0,0,1-3.108,3.2Z" transform="translate(2639.477 418.95)" fill="#ff6a02"/>
  </g>
</svg>
