<svg xmlns="http://www.w3.org/2000/svg" width="59" height="59" viewBox="0 0 59 59">
  <g id="Group_636" data-name="Group 636" transform="translate(-2691.477 -405.331)">
    <rect id="Rectangle_261" data-name="Rectangle 261" width="59" height="59" transform="translate(2691.477 405.331)" fill="#ebebeb"/>
    <path id="Icon_awesome-linkedin-in" data-name="Icon awesome-linkedin-in" d="M5.782,25.83H.427V8.585H5.782ZM3.1,6.233A3.116,3.116,0,1,1,6.2,3.1,3.127,3.127,0,0,1,3.1,6.233Zm22.723,19.6H20.481V17.435c0-2-.04-4.566-2.784-4.566-2.784,0-3.211,2.174-3.211,4.422V25.83H9.136V8.585h5.136v2.352h.075a5.627,5.627,0,0,1,5.067-2.785c5.42,0,6.416,3.569,6.416,8.2V25.83Z" transform="translate(2708.477 422.33)" fill="#ff6a02"/>
  </g>
</svg>
