<svg xmlns="http://www.w3.org/2000/svg" width="59" height="59" viewBox="0 0 59 59">
  <g id="Group_638" data-name="Group 638" transform="translate(-2559.477 -405.331)">
    <rect id="Rectangle_259" data-name="Rectangle 259" width="59" height="59" transform="translate(2559.477 405.331)" fill="#ebebeb"/>
    <path id="Icon_simple-instagram" data-name="Icon simple-instagram" d="M13.429,0c-3.648,0-4.1.017-5.536.081a9.9,9.9,0,0,0-3.26.624A6.576,6.576,0,0,0,2.254,2.254,6.552,6.552,0,0,0,.705,4.633a9.873,9.873,0,0,0-.624,3.26C.013,9.325,0,9.781,0,13.429s.017,4.1.081,5.536a9.908,9.908,0,0,0,.624,3.26A6.586,6.586,0,0,0,2.254,24.6a6.567,6.567,0,0,0,2.379,1.549,9.914,9.914,0,0,0,3.26.624c1.432.067,1.888.081,5.536.081s4.1-.017,5.536-.081a9.937,9.937,0,0,0,3.26-.624,6.863,6.863,0,0,0,3.928-3.928,9.908,9.908,0,0,0,.624-3.26c.067-1.432.081-1.888.081-5.536s-.017-4.1-.081-5.536a9.931,9.931,0,0,0-.624-3.26A6.591,6.591,0,0,0,24.6,2.254,6.543,6.543,0,0,0,22.225.705a9.879,9.879,0,0,0-3.26-.624C17.532.013,17.077,0,13.429,0Zm0,2.417c3.584,0,4.012.018,5.427.079a7.4,7.4,0,0,1,2.492.464A4.419,4.419,0,0,1,23.9,5.509,7.414,7.414,0,0,1,24.36,8c.064,1.417.078,1.842.078,5.427s-.017,4.012-.083,5.427a7.557,7.557,0,0,1-.471,2.492,4.264,4.264,0,0,1-1.006,1.547,4.189,4.189,0,0,1-1.544,1,7.469,7.469,0,0,1-2.5.462c-1.426.064-1.845.078-5.438.078s-4.013-.017-5.438-.083a7.614,7.614,0,0,1-2.5-.471,4.159,4.159,0,0,1-1.543-1.006,4.078,4.078,0,0,1-1.007-1.544,7.621,7.621,0,0,1-.47-2.5c-.05-1.41-.068-1.845-.068-5.421s.018-4.013.068-5.44a7.612,7.612,0,0,1,.47-2.5A3.981,3.981,0,0,1,3.912,3.927a3.972,3.972,0,0,1,1.543-1,7.432,7.432,0,0,1,2.485-.471c1.427-.05,1.846-.067,5.438-.067l.05.034Zm0,4.116a6.9,6.9,0,1,0,6.9,6.9A6.9,6.9,0,0,0,13.429,6.533Zm0,11.372A4.476,4.476,0,1,1,17.9,13.429,4.475,4.475,0,0,1,13.429,17.9Zm8.78-11.644A1.611,1.611,0,1,1,20.6,4.651,1.613,1.613,0,0,1,22.209,6.261Z" transform="translate(2575.477 421.331)" fill="#ff6a02"/>
  </g>
</svg>
