<svg xmlns="http://www.w3.org/2000/svg" width="441.5" height="934.431" viewBox="0 0 441.5 934.431">
  <g id="Group_657" data-name="Group 657" transform="translate(-2801.77 -7443.366)">
    <rect id="Rectangle_18996" data-name="Rectangle 18996" width="441" height="934" transform="translate(2801.77 7443.366)" fill="#fff"/>
    <line id="Line_150" data-name="Line 150" x2="440.805" transform="translate(2801.965 7495.375)" fill="none" stroke="#707070" stroke-width="1" opacity="0.27"/>
    <rect id="Rectangle_19040" data-name="Rectangle 19040" width="441" height="934.432" transform="translate(2802.27 7443.366)" fill="#ff6a02"/>
    <g id="Group_467" data-name="Group 467" transform="translate(14364.142 -1287.394)">
      <path id="Path_2921" data-name="Path 2921" d="M3.765,205.179c-.676-1.221-1.756-2.376-1.967-3.672-4.192-25.772-.838-50.825,7.837-75.216,4.373-12.3,9.625-24.278,14.186-36.512,2.041-5.473,3.365-11.214,4.992-16.839A10.384,10.384,0,0,0,29,71.27c-3.4-.841-4.257-3.2-4.133-6.371.146-3.733.034-7.477.035-11.215,0-4.843.613-5.66,5.306-6.882-.165-1.682-.377-3.39-.491-5.106-.138-2.077.868-3.429,2.587-3.609s3.033.96,3.344,2.975a29.724,29.724,0,0,1,.457,4.376c.005,1.377.606,1.764,1.828,1.629a9.161,9.161,0,0,1,1,0H138.71c1.925-9.666,3.794-19.053,5.71-28.678h-2.064q-11.995,0-23.989,0a10.738,10.738,0,0,1-1.8-.048,2.96,2.96,0,0,1-2.705-2.982,2.9,2.9,0,0,1,2.908-2.947c1.262-.077,2.531-.032,3.8-.032q12.9,0,25.789,0c6.281,0,10.92-2.823,14.17-8.167A47.424,47.424,0,0,1,163.749,0h2c1.408,1.183,2.422,2.512,1.471,4.461-3.151,6.457-7.75,11.257-14.892,13.253a2.894,2.894,0,0,0-1.7,1.765c-1.273,5.038-2.5,10.093-3.531,15.185-.815,4.019-1.331,8.1-1.974,12.113,4.758,1.159,5.48,2.1,5.481,6.753,0,3.738-.113,7.48.035,11.213.128,3.211-.631,5.695-4.14,6.526a11.067,11.067,0,0,0,.2,1.712c1.6,5.561,2.9,11.241,4.924,16.646,4.181,11.164,9.008,22.086,13.112,33.275,9.332,25.443,13.393,51.566,8.976,78.606-.212,1.3-1.29,2.451-1.965,3.673h-2c-1.858-1.007-2.252-2.575-1.935-4.566a137.439,137.439,0,0,0-.123-43.476c-.519-3.257-1.254-6.479-1.911-9.829a137.64,137.64,0,0,0-29.98,13.35,3.062,3.062,0,0,0-1.041,2.267c-.088,5.743-.011,11.487-.066,17.231-.033,3.391-1.713,5.043-5.072,5.076-4.2.041-8.4.013-12.6.011-4.575,0-5.616-.81-6.628-5.23-2.009,2-3.863,4.106-5.973,5.905-4.488,3.826-6.594,8.469-5.524,14.39.035.194-.016.4.007.6a4.224,4.224,0,0,1-1.949,4.273h-2a4.018,4.018,0,0,1-2.081-4.155c.113-2.5.028-5.017.028-7.645H82.61c0,2.625-.084,5.138.028,7.643a4.025,4.025,0,0,1-2.081,4.157h-2a4.441,4.441,0,0,1-1.972-4.267,51.367,51.367,0,0,0-.029-6.8,6.267,6.267,0,0,0-1.227-3.358A139.532,139.532,0,0,0,33.2,156.963a134.281,134.281,0,0,0-23.353-9.6c-.19.726-.376,1.349-.516,1.981A137.035,137.035,0,0,0,7.7,200.617c.312,1.992-.084,3.553-1.934,4.563Zm106.847-67.646c-4.56.379-8.861.835-13.173,1.077A171.479,171.479,0,0,1,61.76,136.98c-5.454-.836-10.857-2.029-16.262-3.161a2.874,2.874,0,0,1-2.345-3.582,3.017,3.017,0,0,1,3.683-2.229c.654.12,1.3.3,1.947.446A174.085,174.085,0,0,0,98.6,132.547c3.965-.236,7.913-.733,11.876-1.11V71.231H65.189q-14.1,0-28.192-.01c-1.076,0-1.834.018-2.074,1.45a102.593,102.593,0,0,1-6.658,22.374c-3.265,7.877-6.429,15.8-9.67,23.778.592.243,1.072.461,1.566.637,4.385,1.571,8.784,3.105,13.154,4.715a2.977,2.977,0,0,1,2.036,3.957c-.555,1.555-2.09,2.266-3.95,1.695-1.843-.565-3.65-1.249-5.469-1.894-3.11-1.1-6.216-2.217-9.54-3.4l-5.225,16.843c1.023.363,1.773.6,2.5.893,5.57,2.193,11.253,4.14,16.682,6.642a141.062,141.062,0,0,1,48.519,36.824,3.9,3.9,0,0,0,3.4,1.548c3.8-.1,7.6.045,11.394-.091a4.393,4.393,0,0,0,2.669-1.229q6.58-6.571,12.964-13.335a4.71,4.71,0,0,0,1.257-2.873c.091-10.016.056-20.033.056-30.05Zm18.1,41.6V168.311q0-28.652,0-57.3c0-2.925.959-4.339,2.937-4.392,2.038-.055,3.054,1.412,3.058,4.444q.01,6.11,0,12.222v3.358L156.972,119c-1.333-3.305-2.588-6.374-3.81-9.455-4.833-12.191-10.624-24.055-12.694-37.2a1.609,1.609,0,0,0-1.094-1.059c-1.49-.127-3-.05-4.664-.05v2.485q0,10.118,0,20.237a12.056,12.056,0,0,1-.112,2.195,2.915,2.915,0,0,1-5.7.157,9.423,9.423,0,0,1-.176-2.185c-.012-6.879,0-13.758-.012-20.638,0-.7-.064-1.41-.1-2.083H116.749V82.957c2.347.236,5.384-.423,5.549,2.925.191,3.884-3.255,2.962-5.564,3.3v9.9c1.573,0,3.027-.045,4.477.01,2.206.084,3.43,1.244,3.384,3.111-.044,1.789-1.226,2.824-3.363,2.876-1.5.036-3,.007-4.483.007v9.926c2.347.236,5.385-.423,5.549,2.925.191,3.884-3.255,2.962-5.564,3.3v9.9c1.573,0,3.026-.045,4.477.01,2.206.084,3.43,1.244,3.384,3.111-.043,1.789-1.226,2.824-3.363,2.876-1.5.036-3,.007-4.483.007v9.964c2.372.152,5.38-.44,5.548,2.886.2,3.884-3.253,2.961-5.564,3.3v9.9c1.573,0,3.026-.045,4.476.01,2.207.084,3.431,1.243,3.386,3.11-.043,1.789-1.227,2.825-3.362,2.877-1.5.036-3.005.007-4.48.007v9.928ZM83.267,53.2c0,1.659.052,3.123-.013,4.581-.091,2.045-1.277,3.276-3.031,3.266-1.8-.011-2.883-1.2-2.938-3.3-.039-1.5-.007-3-.007-4.539H67.367c-.2,2.354.39,5.383-2.908,5.553-3.82.2-2.977-3.235-3.317-5.555H51.266c0,1.656.066,3.186-.017,4.708-.11,2.017-1.375,3.216-3.152,3.133-1.71-.08-2.748-1.239-2.806-3.229-.044-1.509-.009-3.019-.009-4.626H31.028V65.1H144.5V53.182H131.328c-.143,2.4.418,5.5-3.015,5.586-3.673.089-2.849-3.241-3.182-5.582h-9.576c-.1.169-.159.224-.161.28-.046,1.4-.068,2.793-.132,4.189-.1,2.166-1.287,3.444-3.114,3.392-1.778-.051-2.82-1.25-2.869-3.373-.034-1.449-.006-2.9-.006-4.435H99.437c-.487,4.366-1.126,5.664-3.046,5.581C92.7,58.659,93.4,55.634,93.176,53.2Zm51.45,100.362,29.5-12.652-5.046-16.157c-8.009,2.6-15.708,5.085-23.388,7.628a1.707,1.707,0,0,0-1.018,1.172c-.063,6.719-.045,13.439-.045,20.009" transform="translate(-11426.872 9165.07)" fill="#fff"/>
      <path id="Path_2922" data-name="Path 2922" d="M23.16,0a13.891,13.891,0,0,1,2.227,2.689c3.011,6.374,7.944,9.677,15,9.68q34.786.018,69.572.006a16.986,16.986,0,0,1,2.2.048,2.748,2.748,0,0,1,2.624,2.773,2.77,2.77,0,0,1-2.308,3.058,8.859,8.859,0,0,1-2.184.126q-33.887.008-67.773,0H39.874c.606,2.7,1.232,5.194,1.692,7.716a3.677,3.677,0,0,1-.254,2.638,3.726,3.726,0,0,1-2.77,1.4,3.736,3.736,0,0,1-2.506-2.1A89.782,89.782,0,0,1,33.92,19.3a3.068,3.068,0,0,0-2.1-2.535,21.272,21.272,0,0,1-11.69-11.2C18.84,2.811,19.02,1.964,21.16,0Z" transform="translate(-11435.868 9165.07)" fill="#fff"/>
      <path id="Path_2923" data-name="Path 2923" d="M164.593,192.791c0,1.734.058,3.471-.014,5.2a3.057,3.057,0,0,1-3.064,3.24,3.021,3.021,0,0,1-2.878-3.218q-.1-5.2,0-10.406c.043-2.077,1.251-3.235,3.057-3.187,1.711.045,2.8,1.171,2.884,3.166.076,1.731.015,3.468.017,5.2" transform="translate(-11500.721 9079.188)" fill="#fff"/>
    </g>
    <text id="Find_Your" data-name="Find Your" transform="translate(2941.27 7615.797)" fill="#fff" font-size="36" font-family="Ananda"><tspan x="0" y="0">Find Your</tspan></text>
    <text id="in_just_30_seconds" data-name="in just 30 seconds" transform="translate(2881.27 7731.797)" fill="#fff" font-size="26" font-family="Poppins-Regular, Poppins" letter-spacing="0.065em"><tspan x="0" y="0">IN JUST 30 SECONDS</tspan></text>
    <text id="_No_need_to_measuring_tape_" data-name="( No need to measuring tape )" transform="translate(2903.27 7769.797)" fill="#fff" font-size="14" font-family="Poppins-Regular, Poppins" letter-spacing="0.065em"><tspan x="0" y="0">( No need to measuring tape )</tspan></text>
    <text id="Perfect_Fit" data-name="Perfect Fit" transform="translate(2863.27 7685.797)" fill="#fff" font-size="62" font-family="RomelioSans, Romelio Sans"><tspan x="0" y="0">Perfect Fit</tspan></text>
    <line id="Line_162" data-name="Line 162" x2="206" transform="translate(2922.77 7815.297)" fill="none" stroke="#fff" stroke-width="1"/>
    <rect id="Rectangle_19041" data-name="Rectangle 19041" width="324.396" height="45.867" transform="translate(2863.27 8143.009)" fill="#fff"/>
    <text id="Let_s_start" data-name="Let&apos;s start" transform="translate(2980.27 8172.009)" fill="#ff6a02" font-size="16" font-family="Roboto-Regular, Roboto"><tspan x="0" y="0">LET&apos;S START</tspan></text>
  </g>
</svg>
